<svg xmlns="http://www.w3.org/2000/svg" width="12" height="12" viewBox="0 0 16 16">
    <path data-name="사각형 4834" style="fill:none" d="M0 0h16v16H0z"/>
    <path data-name="패스 17036" d="M9.222 2a.446.446 0 0 0-.444.444v.444H5.222v-.444a.444.444 0 1 0-.889 0v.444h-.444a.885.885 0 0 0-.889.89V10a.889.889 0 0 0 .889.889h6.222A.892.892 0 0 0 11 10V3.778a.892.892 0 0 0-.889-.889h-.444v-.445A.446.446 0 0 0 9.222 2zm.889 8H3.889V5.556h6.222zM6.556 6.889A.444.444 0 1 1 7 7.333a.446.446 0 0 1-.444-.444zm-1.778 0a.444.444 0 1 1 .444.444.446.446 0 0 1-.444-.444zm3.556 0a.444.444 0 1 1 .444.444.446.446 0 0 1-.445-.444zM6.556 8.667A.444.444 0 1 1 7 9.111a.446.446 0 0 1-.444-.444zm-1.778 0a.444.444 0 1 1 .444.444.446.446 0 0 1-.444-.444zm3.556 0a.444.444 0 1 1 .444.444.446.446 0 0 1-.445-.444z" transform="translate(1 1.333)" style="fill:#fff"/>
</svg>
